# xmcd CD database file
#
# Track frame offsets:
#	150
#	22975
#	47160
#
# Disc length: 930 seconds
#
# Revision: 0
# Processed by: cddbd v1.5.1PL2 Copyright (c) Steve Scherf et al.
# Submitted via: CDex 1.51
#
DISCID=1b03a003
DTITLE=THE ALFEE - 冒険者たち (NHK総合アニメ「モンタナ・ジョーンズ」OP
DYEAR=94
DGENRE=Vocal
TTITLE0=冒険者たち
TTITLE1=El Dorado(EnglishVersion)
TTITLE2=冒険者たち(オリジナル・カラオケ)
EXTD=YEAR: 94
EXTT0=
EXTT1=
EXTT2=
PLAYORDER=
